<?xml version="1.0" encoding="UTF-8" standalone="no"?>
<!DOCTYPE svg PUBLIC "-//W3C//DTD SVG 1.1//EN" "http://www.w3.org/Graphics/SVG/1.1/DTD/svg11.dtd">
<svg width="100%" height="100%" viewBox="0 0 546 827" version="1.1" xmlns="http://www.w3.org/2000/svg" xmlns:xlink="http://www.w3.org/1999/xlink" xml:space="preserve" xmlns:serif="http://www.serif.com/" style="fill-rule:evenodd;clip-rule:evenodd;stroke-linejoin:round;stroke-miterlimit:2;">
    <g transform="matrix(1,0,0,1,-158.363,-1130.59)">
        <g transform="matrix(1,0,0,1,-88.6573,424.449)">
            <g transform="matrix(1,0,0,-1,614.291,1150.89)">
                <path d="M0,-5.774C0.215,-3.462 0.184,-1.001 1.129,1.159C2.168,3.003 5.109,2.632 5.633,0.569C5.726,-1.655 5.795,-3.884 5.853,-6.116C3.65,-6.499 1.589,-7.434 -0.158,-8.777C-0.114,-7.776 -0.061,-6.775 0,-5.774Z" style="fill-rule:nonzero;"/>
            </g>
            <g transform="matrix(1,0,0,-1,515.852,720.013)">
                <path d="M0,-0C0.059,2.517 3.778,2.517 3.836,0C3.777,-2.517 0.058,-2.517 0,-0Z" style="fill-rule:nonzero;"/>
            </g>
            <g transform="matrix(1,0,0,-1,690.956,958.32)">
                <path d="M0,7.867C1.072,6.67 2.14,5.473 3.209,4.271C3.682,2.833 4.206,1.408 4.765,0C3.168,2.618 1.58,5.238 0,7.867Z" style="fill-rule:nonzero;"/>
            </g>
            <g transform="matrix(1,0,0,-1,378.557,711.133)">
                <path d="M0,-465.074C-16.133,-464.723 -31.121,-463.856 -46.773,-462.285C-61.051,-460.281 -88.199,-458.848 -91.184,-441.207C-91.84,-435.895 -89.758,-430.766 -87.957,-425.867C-86.316,-421.434 -84.574,-417.039 -82.711,-412.695C-70.855,-385.359 -56.766,-359.055 -42.297,-333.02C-2.102,-260.91 46.047,-193.512 84.547,-120.418C103.867,-84.492 122.664,-48.461 138.297,-10.875C139.805,-7.676 140.387,-3.984 142.305,-1.02C143.266,0.027 144.957,-0.328 145.664,-1.453C146.641,-3.289 145.707,-5.438 145.34,-7.332C144.734,-9.695 143.926,-12.02 143.133,-14.324C142.819,-15.198 142.501,-16.068 142.179,-16.939C142.175,-16.947 142.172,-16.956 142.168,-16.965C142.066,-17.243 141.963,-17.519 141.86,-17.796C141.792,-17.979 141.723,-18.164 141.654,-18.348C141.649,-18.359 141.645,-18.371 141.64,-18.382C141.392,-19.044 141.141,-19.704 140.888,-20.364C140.842,-20.483 140.796,-20.603 140.75,-20.723C140.748,-20.727 140.747,-20.732 140.745,-20.737C140.714,-20.816 140.683,-20.897 140.653,-20.976C140.65,-20.983 140.647,-20.99 140.644,-20.996C140.64,-21.007 140.636,-21.018 140.632,-21.029C140.62,-21.061 140.608,-21.094 140.595,-21.125L140.594,-21.125C140.54,-21.266 140.486,-21.408 140.432,-21.549C140.186,-22.182 139.938,-22.815 139.689,-23.447C139.685,-23.458 139.68,-23.469 139.676,-23.481C139.641,-23.568 139.607,-23.656 139.572,-23.744C139.27,-24.507 138.966,-25.269 138.659,-26.03C138.574,-26.24 138.488,-26.45 138.402,-26.66C138.278,-26.969 138.153,-27.278 138.028,-27.587C137.865,-27.985 137.702,-28.382 137.539,-28.78C137.449,-28.995 137.36,-29.21 137.269,-29.426C137.203,-29.589 137.136,-29.753 137.069,-29.916C136.93,-30.252 136.79,-30.588 136.649,-30.923C136.649,-30.924 136.649,-30.925 136.648,-30.926C136.648,-30.927 136.648,-30.928 136.647,-30.928C136.581,-31.087 136.514,-31.248 136.447,-31.406L136.445,-31.406C135.338,-34.05 134.205,-36.683 133.055,-39.308C133.047,-39.326 133.039,-39.344 133.031,-39.362C132.953,-39.541 132.875,-39.719 132.796,-39.898C132.743,-40.018 132.69,-40.14 132.637,-40.26C132.631,-40.273 132.625,-40.286 132.62,-40.299C130.213,-45.765 127.733,-51.199 125.246,-56.621C101.547,-106.254 76.152,-154.383 48.211,-201.645C11.941,-261.824 -26.801,-320.617 -57.953,-383.715C-66.004,-400.016 -74.023,-416.399 -80.211,-433.512C-80.804,-435.432 -81.612,-437.47 -81.609,-439.481C-81.608,-440.33 -81.462,-441.175 -81.094,-442.004C-81.094,-442.004 -81.063,-441.953 -81.059,-441.953C-74.656,-452.164 -42.273,-453.367 -30.395,-454.606C-16.078,-455.559 -1.769,-455.981 12.539,-455.981C76.215,-455.981 139.777,-447.609 202.969,-440.344C244.395,-435.551 285.879,-431.266 327.465,-428.086C346.781,-426.371 366.215,-425.789 385.453,-423.254C388.906,-422.759 392.358,-422.238 395.805,-421.687C397.933,-421.349 400.059,-421 402.184,-420.641C402.281,-420.61 402.383,-420.582 402.488,-420.551C402.719,-421.985 402.976,-423.414 403.238,-424.848C403.328,-425.391 403.414,-425.93 403.492,-426.473C403.336,-426.61 403.176,-426.746 403.016,-426.883C400.937,-428.527 398.816,-430.07 396.613,-431.539C395.359,-432.285 394.094,-433.008 392.816,-433.707C386.465,-434.535 380.09,-435.207 373.703,-435.738C333.469,-438.832 293.199,-441.496 253.039,-445.406C251.059,-445.578 249.086,-445.754 247.105,-445.934C245.41,-445.672 243.723,-445.574 242.125,-445.781C240.945,-445.938 239.801,-446.254 238.715,-446.707C169.605,-453.207 100.613,-462.793 31.215,-464.746C30.547,-464.629 29.863,-464.551 29.172,-464.52C27.66,-464.449 26.195,-464.586 24.793,-464.906C18.742,-465.031 12.688,-465.102 6.629,-465.102C4.418,-465.102 2.215,-465.09 0,-465.074Z" style="fill-rule:nonzero;"/>
            </g>
            <g transform="matrix(1,0,0,-1,775.518,711.01)">
                <path d="M0,-421.622C0.001,-421.622 0.001,-421.622 0.002,-421.621C-1.04,-420.753 -2.068,-419.868 -3.083,-418.969C-3.178,-418.885 -3.272,-418.801 -3.367,-418.717C-3.425,-418.665 -3.485,-418.612 -3.543,-418.559C-3.677,-418.44 -3.81,-418.32 -3.944,-418.2C-3.973,-418.173 -4.002,-418.147 -4.032,-418.12C-12.527,-410.445 -20.045,-401.722 -26.608,-392.313C-58.694,-349.535 -88.62,-305.102 -114.901,-258.508C-142.076,-211.137 -166.049,-162.016 -193.01,-114.52C-210.791,-80.942 -230.057,-47.653 -245.475,-13.078C-247.127,-9.207 -248.623,-5.25 -249.791,-1.203C-250.057,-0.289 -250.323,0.644 -250.327,1.601C-250.327,3.043 -249.288,5.047 -247.604,4.855C-244.873,4.386 -244.413,1.465 -243.475,-0.676C-240.432,-8.078 -236.944,-15.281 -233.385,-22.45C-208.28,-70.535 -180.088,-116.922 -153.897,-164.407C-123.889,-220.821 -93.162,-277.297 -57.28,-330.2C-42.498,-352.039 -27.053,-373.414 -11.163,-394.461C-4.334,-403.871 1.42,-414.168 6.232,-424.719C6.248,-424.805 6.263,-424.887 6.279,-424.969C6.369,-425.512 6.451,-426.051 6.533,-426.594C6.505,-426.617 6.474,-426.645 6.447,-426.668C4.242,-425.052 2.094,-423.368 0,-421.622Z" style="fill-rule:nonzero;"/>
            </g>
            <g transform="matrix(1,0,0,-1,289.793,962.63)">
                <path d="M0,-1.224C-0.806,-0.281 0.789,0.955 1.515,-0.053C2.265,-1.059 0.797,-2.18 0,-1.224Z" style="fill-rule:nonzero;"/>
            </g>
            <g transform="matrix(1,0,0,-1,520.838,712.113)">
                <path d="M0,-7.579C-0.344,-7.305 -0.625,-6.989 -0.797,-6.579C-1.031,-6.02 -1.004,-5.422 -0.887,-4.84C-0.762,-4.2 -0.535,-3.59 -0.262,-3C0.242,-1.911 0.965,-0.93 1.75,-0.028C1.893,0.136 2.037,0.298 2.184,0.459C2.667,0.294 3.102,-0.031 3.383,-0.477C4.359,-2.313 3.426,-4.461 3.059,-6.356C2.955,-6.761 2.845,-7.165 2.73,-7.568C2.648,-7.628 2.562,-7.683 2.473,-7.735C2.131,-7.936 1.739,-8.037 1.347,-8.037C0.864,-8.037 0.384,-7.884 0,-7.579Z" style="fill-rule:nonzero;"/>
            </g>
            <g transform="matrix(1,0,0,-1,525.725,709.313)">
                <path d="M0,-2.906C-0.241,-2.078 -0.481,-1.235 -0.527,-0.372C0.218,0.157 1.036,0.573 1.85,0.979C1.849,0.978 1.848,0.978 1.848,0.977C1.851,0.979 1.855,0.981 1.858,0.982C1.883,0.995 1.908,1.008 1.934,1.02C1.928,1.018 1.923,1.015 1.918,1.013C2.025,1.067 2.133,1.122 2.242,1.176C2.23,1.169 2.219,1.163 2.208,1.158C2.316,1.213 2.424,1.265 2.531,1.321C2.512,1.309 2.492,1.301 2.473,1.29C2.852,1.485 3.231,1.68 3.606,1.876C3.613,1.883 3.629,1.876 3.625,1.864C3.152,0.395 2.406,-0.935 1.689,-2.291C1.296,-3.113 0.931,-3.952 0.569,-4.789C0.372,-4.163 0.182,-3.536 0,-2.906Z" style="fill-rule:nonzero;"/>
            </g>
            <g transform="matrix(1,0,0,-1,527.643,708.334)">
                <path d="M0,0.035C-0.02,0.024 -0.04,0.014 -0.06,0.004C-0.063,0.003 -0.065,0.001 -0.068,0C-0.046,0.012 -0.022,0.024 0,0.035Z" style="fill-rule:nonzero;"/>
            </g>
            <g transform="matrix(1,0,0,-1,518.881,711.822)">
                <path d="M0,-16.102C-0.93,-15.742 -1.742,-14.742 -1.816,-13.73C-1.883,-12.82 -1.707,-12.027 -1.356,-11.187C-1.164,-10.73 -0.965,-10.277 -0.758,-9.828C-0.297,-8.824 0.164,-7.82 0.621,-6.812C1.527,-4.832 2.387,-2.824 3.355,-0.875C3.539,-0.504 3.723,-0.137 3.906,0.234C4.481,0.105 5.016,-0.25 5.34,-0.77C6.316,-2.605 5.383,-4.754 5.016,-6.648C4.498,-8.67 3.831,-10.664 3.153,-12.64C3.153,-12.64 3.152,-12.641 3.152,-12.641L3.152,-12.641C3.073,-12.871 2.994,-13.101 2.915,-13.331C2.879,-13.434 2.844,-13.537 2.809,-13.641C2.62,-14.164 2.43,-14.686 2.239,-15.208C2.222,-15.255 2.205,-15.301 2.188,-15.348C2.184,-15.358 2.18,-15.369 2.176,-15.38C2.093,-15.606 2.01,-15.833 1.926,-16.06C1.924,-16.067 1.921,-16.074 1.918,-16.082C1.917,-16.086 1.915,-16.089 1.914,-16.093C1.898,-16.136 1.883,-16.179 1.867,-16.222C1.86,-16.239 1.853,-16.257 1.845,-16.274C1.643,-16.317 1.433,-16.336 1.219,-16.336C0.824,-16.336 0.414,-16.262 0,-16.102Z" style="fill-rule:nonzero;"/>
            </g>
            <g transform="matrix(1,0,0,-1,527.811,703.495)">
                <path d="M0,-15.02C-0.035,-14.922 -0.074,-14.82 -0.109,-14.723C-0.179,-14.534 -0.248,-14.345 -0.317,-14.156C-0.378,-13.988 -0.438,-13.82 -0.497,-13.651C-0.509,-13.618 -0.52,-13.584 -0.531,-13.551C-0.547,-13.512 -0.559,-13.469 -0.574,-13.43C-0.581,-13.406 -0.59,-13.383 -0.6,-13.36C-0.607,-13.34 -0.614,-13.32 -0.621,-13.3C-0.623,-13.293 -0.626,-13.287 -0.628,-13.28C-1.155,-11.774 -1.644,-10.254 -2.086,-8.723C-4.379,-2.41 1.676,0.004 3.656,-6.723C3.477,-7 3.289,-7.273 3.098,-7.539C3.066,-7.582 3.035,-7.625 3.004,-7.668C3.063,-10.305 0.766,-12.523 0,-15.023L0,-15.02Z" style="fill-rule:nonzero;"/>
            </g>
            <g transform="matrix(1,0,0,-1,515.994,711.611)">
                <path d="M0,-20.34C-1.035,-19.605 -1.629,-18.406 -2,-17.184C-1.035,-14.926 -0.082,-12.668 0.859,-10.402C0.902,-10.313 0.941,-10.227 0.984,-10.137C0.363,-9.883 -0.125,-9.305 -0.145,-8.406C-0.109,-6.906 1.223,-6.301 2.309,-6.59C3.008,-4.488 3.68,-2.379 4.867,-0.547C5.828,0.5 7.52,0.145 8.227,-0.98C9.203,-2.816 8.27,-4.965 7.902,-6.859C7.384,-8.881 6.718,-10.875 6.039,-12.851C6.039,-12.851 6.039,-12.851 6.039,-12.852L6.039,-12.852C5.96,-13.082 5.881,-13.312 5.802,-13.542C5.766,-13.645 5.731,-13.748 5.695,-13.852C5.673,-13.914 5.65,-13.976 5.628,-14.038C5.626,-14.043 5.624,-14.048 5.622,-14.053C5.49,-14.421 5.357,-14.789 5.223,-15.157C5.173,-15.291 5.124,-15.425 5.074,-15.559C5.062,-15.594 5.049,-15.63 5.037,-15.666C5.011,-15.736 4.985,-15.806 4.959,-15.876C4.943,-15.92 4.926,-15.964 4.91,-16.008C4.875,-16.105 4.84,-16.199 4.805,-16.293C4.781,-16.359 4.758,-16.426 4.731,-16.488C4.516,-17.074 4.297,-17.656 4.078,-18.238C4.042,-18.337 4.004,-18.435 3.968,-18.533C3.842,-18.865 3.716,-19.198 3.589,-19.529C3.497,-19.768 3.405,-20.007 3.312,-20.246C3.309,-20.258 3.304,-20.269 3.3,-20.281C3.274,-20.349 3.248,-20.417 3.222,-20.484C3.217,-20.496 3.212,-20.508 3.207,-20.52C3.2,-20.539 3.193,-20.558 3.186,-20.578C3.177,-20.6 3.169,-20.622 3.16,-20.645C2.699,-20.766 2.219,-20.84 1.75,-20.84C1.121,-20.84 0.516,-20.703 0,-20.34Z" style="fill-rule:nonzero;"/>
            </g>
            <g transform="matrix(1,0,0,-1,529.284,705.971)">
                <path d="M0,-16.311C-0.195,-15.838 -0.387,-15.358 -0.574,-14.881L-0.578,-14.881C-0.649,-14.702 -0.72,-14.522 -0.79,-14.342C-0.83,-14.238 -0.87,-14.134 -0.91,-14.03C-0.984,-13.838 -1.059,-13.647 -1.129,-13.455C-1.207,-13.254 -1.284,-13.052 -1.36,-12.849C-1.398,-12.749 -1.435,-12.648 -1.473,-12.548L-1.473,-12.545C-1.508,-12.448 -1.547,-12.346 -1.582,-12.248C-1.631,-12.115 -1.68,-11.982 -1.729,-11.849C-1.816,-11.607 -1.903,-11.364 -1.989,-11.121C-1.994,-11.106 -1.999,-11.091 -2.004,-11.077C-2.019,-11.038 -2.031,-10.995 -2.047,-10.955C-2.052,-10.938 -2.059,-10.92 -2.066,-10.903C-2.605,-9.364 -3.106,-7.813 -3.559,-6.248C-3.824,-5.334 -4.09,-4.401 -4.094,-3.444C-4.094,-2.002 -3.055,0.002 -1.371,-0.19C1.688,-0.764 1.957,-4.268 3.121,-6.6C2.188,-9.869 0.883,-13.028 0.001,-16.313C0,-16.312 0,-16.311 0,-16.311Z" style="fill-rule:nonzero;"/>
            </g>
            <g transform="matrix(1,0,0,-1,514.088,711.279)">
                <path d="M0,-31.09C-2,-30.539 -3.731,-28.715 -3.93,-26.602C-3.938,-26.52 -3.941,-26.441 -3.949,-26.363C-1.652,-21.18 0.586,-15.973 2.766,-10.734C2.809,-10.645 2.848,-10.559 2.891,-10.469C2.602,-10.348 2.344,-10.16 2.145,-9.906C2.531,-8.906 2.895,-7.898 3.262,-6.891C3.578,-6.828 3.906,-6.84 4.215,-6.922C4.914,-4.82 5.586,-2.711 6.773,-0.879C7.734,0.168 9.426,-0.188 10.133,-1.313C11.109,-3.148 10.176,-5.297 9.809,-7.191C9.291,-9.213 8.624,-11.207 7.946,-13.183C7.946,-13.183 7.945,-13.184 7.945,-13.184L7.945,-13.184C7.866,-13.414 7.787,-13.644 7.708,-13.874C7.672,-13.977 7.637,-14.08 7.602,-14.184C7.582,-14.239 7.561,-14.295 7.541,-14.35C7.533,-14.374 7.525,-14.397 7.517,-14.42C7.394,-14.759 7.272,-15.097 7.148,-15.436C7.093,-15.587 7.037,-15.739 6.981,-15.891C6.969,-15.923 6.957,-15.957 6.946,-15.99C6.921,-16.056 6.897,-16.123 6.872,-16.189C6.854,-16.24 6.835,-16.29 6.816,-16.34C6.781,-16.438 6.746,-16.531 6.711,-16.625C6.703,-16.648 6.695,-16.671 6.686,-16.694C6.682,-16.707 6.677,-16.72 6.672,-16.733C6.661,-16.763 6.649,-16.792 6.637,-16.82C6.422,-17.406 6.203,-17.988 5.984,-18.57C5.734,-19.242 5.477,-19.91 5.219,-20.578C5.207,-20.611 5.195,-20.644 5.183,-20.678C5.171,-20.709 5.159,-20.74 5.147,-20.771C5.136,-20.798 5.125,-20.825 5.113,-20.852C5.1,-20.888 5.087,-20.925 5.073,-20.962C5.071,-20.968 5.068,-20.974 5.066,-20.98L5.062,-20.98C4.925,-21.34 4.787,-21.699 4.648,-22.058C4.556,-22.292 4.465,-22.527 4.373,-22.762C4.297,-22.953 4.221,-23.145 4.144,-23.336C3.727,-24.398 3.305,-25.457 2.871,-26.516C2.5,-27.438 2.125,-28.359 1.738,-29.281C1.643,-29.515 1.547,-29.748 1.451,-29.982C1.368,-30.181 1.285,-30.38 1.202,-30.578C1.174,-30.646 1.146,-30.714 1.117,-30.781C1.103,-30.815 1.089,-30.849 1.075,-30.882C1.023,-31.007 0.97,-31.133 0.918,-31.258C0.613,-31.23 0.305,-31.172 0,-31.09Z" style="fill-rule:nonzero;"/>
            </g>
            <g transform="matrix(1,0,0,-1,528.705,705.969)">
                <path d="M0,-14.883C-0.113,-14.602 -0.223,-14.316 -0.332,-14.031C-0.406,-13.84 -0.481,-13.648 -0.551,-13.457C-0.668,-13.156 -0.781,-12.856 -0.895,-12.551L-0.895,-12.547C-0.93,-12.449 -0.969,-12.348 -1.004,-12.25C-1.074,-12.059 -1.144,-11.867 -1.214,-11.676C-1.274,-11.51 -1.334,-11.343 -1.393,-11.177C-1.404,-11.144 -1.415,-11.111 -1.426,-11.078C-1.441,-11.039 -1.453,-10.996 -1.469,-10.957C-1.475,-10.934 -1.485,-10.911 -1.494,-10.888C-1.502,-10.867 -1.51,-10.845 -1.517,-10.823C-1.518,-10.821 -1.519,-10.818 -1.52,-10.816C-2.047,-9.307 -2.538,-7.785 -2.981,-6.25C-3.246,-5.336 -3.512,-4.402 -3.516,-3.445C-3.516,-2.004 -2.477,0 -0.793,-0.191C2.563,-0.902 2.684,-4.965 4.078,-7.5C2.688,-9.944 1.474,-12.482 0.002,-14.883L0,-14.883Z" style="fill-rule:nonzero;"/>
            </g>
            <g transform="matrix(1,0,0,-1,516.901,706.973)">
                <path d="M0,-17.089C-2.414,-14.186 2.438,-6.932 3.777,-3.803C5.234,-1.147 10.742,1.365 11.965,-2.667C12.652,-5.234 11.55,-7.533 10.267,-9.764C10.267,-9.763 10.266,-9.762 10.266,-9.76C9.508,-11.081 8.684,-12.378 8.129,-13.694C7.5,-15.022 6.414,-16.534 5.133,-17.487L5.133,-17.491C5.133,-17.491 5.133,-17.491 5.133,-17.491C4.35,-18.076 3.495,-18.453 2.629,-18.453C1.742,-18.453 0.845,-18.059 0,-17.089Z" style="fill-rule:nonzero;"/>
            </g>
            <g transform="matrix(1,0,0,-1,572.292,1162.32)">
                <path d="M0,9.779C-29.614,6.336 -59.305,2.752 -89.049,0C-59.307,2.752 -29.611,6.336 0,9.779Z" style="fill:rgb(255,242,159);fill-rule:nonzero;"/>
            </g>
        </g>
        <g>
            <g transform="matrix(1,0,0,-1,316.47,1600.72)">
                <path d="M0,-0.001C-0.033,4.085 6.346,4.085 6.312,-0C6.345,-4.086 -0.033,-4.086 0,-0.001Z" style="fill-rule:nonzero;"/>
            </g>
            <g transform="matrix(1,0,0,-1,262.996,1597.43)">
                <path d="M0,-359.602C-6.74,-359.511 -13.624,-358.221 -19.813,-355.613C-12.681,-351.31 -4.605,-348.403 3.688,-347.488C7.687,-347.086 11.699,-346.781 15.699,-346.437C29.156,-345.173 42.773,-345.382 56.027,-342.431C57.915,-341.815 61.724,-341.873 61.439,-339.139C56.501,-285.78 57.094,-232.144 55.102,-178.641C53.667,-144.915 51.188,-111.209 51.117,-77.441C51.236,-60.798 51.365,-44.148 51.73,-27.508C52.223,-21.601 51.491,-1.738 56.801,-0.648C63.023,0 59.729,-7.726 59.812,-11.257C59.16,-61.333 61.542,-111.436 64.828,-161.406C68.225,-212.387 67.717,-263.532 71.199,-314.508C71.723,-322.149 72.309,-329.781 72.969,-337.414C73.562,-341.524 71.888,-345.816 68.789,-348.559C63.421,-353.034 55.989,-353.436 49.402,-354.816C41.332,-356.149 33.156,-356.566 25.023,-357.36C16.676,-357.997 8.371,-359.455 0,-359.602Z" style="fill-rule:nonzero;"/>
            </g>
            <g transform="matrix(1,0,0,-1,650.409,1579.71)">
                <path d="M0,-368.184C-107.048,-359.556 -90.616,-328.087 -99.345,-239.551C-102.803,-199.292 -107.035,-159.108 -111.59,-118.958C-115.512,-84.088 -122.019,-49.478 -121.755,-14.266C-121.609,-10.763 -122.533,-6.973 -121.216,-3.661C-119.03,0.08 -113.139,-1.586 -113.152,-5.965C-110.495,-35.449 -106.271,-64.674 -101.109,-93.817C-88.375,-169.512 -85.619,-246.496 -76.302,-322.466C-56.352,-361.806 15.112,-353.537 53.042,-357.841C36.21,-364.142 18.095,-368.264 0,-368.184Z" style="fill-rule:nonzero;"/>
            </g>
        </g>
        <g transform="matrix(1,0,0,1,29.1038,-3.82964)">
            <g transform="matrix(1,0,0,-1,554.345,1359.47)">
                <path d="M0,-45.83C-23.038,-35.999 80.745,-9.554 88.212,-7.032C138.494,0 66.202,-22.679 54.381,-25.144C35.612,-30.228 17.439,-37.584 0,-45.83Z" style="fill-rule:nonzero;"/>
            </g>
            <g transform="matrix(1,0,0,-1,245.375,1394.21)">
                <path d="M0,-43.364C-33.575,-34.539 -67.229,-25.492 -100.422,-15.227C-105.274,-12.927 -111.964,-12.847 -115.429,-8.461C-118.355,-2.581 -111.277,0.334 -106.523,-1.734C-72.413,-11.081 -38.171,-20.009 -4.074,-29.445C7.419,-30.803 19.614,-43.698 0,-43.364Z" style="fill-rule:nonzero;"/>
            </g>
        </g>
        <g transform="matrix(1,0,0,1,-511.647,369.768)">
            <g transform="matrix(1,0,0,-1,874.745,941.841)">
                <path d="M0,-103.131C-24.006,-82.59 -23.222,-34.86 -5.167,-10.686C1.212,-2.237 10.919,5.362 22.052,4.408C26.43,3.939 32.213,1.515 32.383,-3.557C32.212,-8.589 27.105,-9.881 23.262,-7.542C17.245,-6.222 11.702,-10.888 7.829,-14.985C-2.946,-27.678 -6.175,-45.21 -5.137,-61.46C-4.294,-72.945 -1.131,-85.142 7.624,-93.18C12.355,-97.434 19.32,-97.215 25.003,-95.199C34.785,-91.928 41.69,-83.464 46.261,-74.549C53.155,-60.781 54.684,-44.698 51.722,-29.674C49.829,-20.735 46.209,-12.023 40.306,-4.975C36.383,-0.478 34.117,5.145 30.461,9.806C32.855,11.117 35.741,11.02 38.352,10.424C52.693,7.542 61.065,-12.961 63.798,-25.858C68.868,-50.263 63.198,-77.639 45.59,-95.858C34.345,-107.701 13.864,-114.248 0,-103.131Z" style="fill-rule:nonzero;"/>
            </g>
            <g transform="matrix(1,0,0,-1,1017.72,925.716)">
                <path d="M0,-109.789C-36.94,-101.255 -59.267,-52.473 -54.894,-17.151C-53.791,-9.852 -50.92,1.356 -43.261,4.137C-40.869,4.828 -38.043,3.27 -38.08,0.591C-31.886,0.324 -25.846,-2.132 -21.046,-6.034C-14.804,-10.921 -8.882,-16.249 -3.472,-22.046C10.457,-37.477 21.905,-56.039 26.024,-76.616C29.751,-96.284 23.435,-114.617 0,-109.789ZM8.341,-99.754C12.265,-99.703 14.313,-97.916 15.439,-94.22C17.417,-89.048 16.328,-83.459 15.441,-78.173C12.784,-66.258 7.113,-55.235 0.414,-45.109C-5.228,-36.787 -11.866,-29.16 -19.414,-22.514C-26.558,-16.372 -34.993,-10.889 -40.679,-3.475C-49.552,-16.148 -45.356,-39.47 -40.442,-53.206C-33.65,-73.438 -15.25,-99.924 8.341,-99.754Z" style="fill-rule:nonzero;"/>
            </g>
        </g>
        <g transform="matrix(1,0,0,-1,396.991,1397.5)">
            <path d="M0,-108.909C-18.891,-109.272 -37.508,-105.845 -23.168,-83.315C-6.814,-57.005 12.471,-31.825 29.429,-6.221C31.27,-3.705 33.053,0.371 36.777,-0.147C41.398,-1.27 40.368,-5.592 38.441,-8.741C37.488,-10.717 36.508,-12.678 35.45,-14.601C21.124,-39.402 3.96,-62.448 -11.293,-86.682C-13.272,-89.65 -15.184,-92.687 -16.444,-96.042C-16.444,-96.042 -16.444,-96.042 -16.444,-96.043C-12.911,-97.504 -9.071,-97.859 -5.294,-98.201C20.118,-99.946 45.589,-97.271 70.478,-92.115C79.741,-90.226 88.919,-87.924 97.884,-84.902C99.897,-84.08 102.189,-83.42 103.668,-81.749C102.08,-75.644 99.376,-69.789 95.939,-64.502C88.847,-55.831 81.212,-47.764 73.73,-39.448C67.88,-32.939 61.583,-26.841 55.457,-20.604C50.785,-15.327 47.078,-9.323 44.101,-2.948C50.236,-4.044 56.136,-6.638 61.281,-10.186C70.152,-17.01 77.334,-25.828 84.863,-34.057C93.808,-44.933 104.058,-55.245 109.668,-68.346C111.523,-73.122 114.443,-77.973 113.683,-83.272C112.558,-89.671 105.715,-92.612 100.234,-94.409C88.341,-98.334 76.065,-100.957 63.758,-103.186C42.731,-107.005 21.388,-109.28 0,-108.909Z" style="fill-rule:nonzero;"/>
        </g>
        <g transform="matrix(1,0,0,-1,422.255,1438.61)">
            <path d="M0,-110.806C-36.005,-109.788 -71.736,-102.821 -104.536,-87.841C-109.23,-84.636 -129.805,-78.615 -123.41,-71.585C-118.907,-68.432 -102.215,-81.053 -95.492,-82.278C-65.191,-94.745 -32.459,-100.93 0.241,-101.811C76.427,-102.687 118.133,-64.646 150.784,0.512C131.193,-68.163 81.665,-111.318 0,-110.806Z" style="fill-rule:nonzero;"/>
        </g>
        <g transform="matrix(1,0,0,1,-509.808,626.04)">
            <g transform="matrix(1,0,0,-1,900.421,714.073)">
                <path d="M0,-18.873C-8.794,-18.874 -18.282,-18.144 -25.113,-11.944C-27.418,-9.979 -29.387,-7.377 -29.582,-4.256C-29.734,-2.246 -28.67,0.088 -26.578,0.595C-24.644,1.201 -22.119,-0.254 -22.239,-2.392C-16.67,-9.661 -6.863,-9.516 1.445,-9.44C7.762,-9.455 14.282,-9.783 20.066,-6.846C21.418,-6.373 22.845,-5.841 24.281,-5.834C25.629,-9.186 24.476,-13.26 21.902,-15.725C17.097,-20.074 6.245,-18.736 0,-18.873Z" style="fill-rule:nonzero;"/>
            </g>
            <g transform="matrix(1,0,0,-1,978.058,702.785)">
                <path d="M0,-16.717C-2.109,-16.36 -4.193,-15.823 -6.281,-15.358C-11.25,-13.948 -10.171,-6.685 -5.072,-6.588C-2.787,-6.289 0.524,-5.55 2.081,-7.719C6.91,-7.025 11.503,-4.966 15.977,-3.087C19,-1.512 21.609,0.096 24.886,0.799C25.847,-5.639 21.812,-11.942 15.414,-13.459C10.492,-15.223 5.338,-17.516 0,-16.717Z" style="fill-rule:nonzero;"/>
            </g>
        </g>
        <g transform="matrix(1,0,0,1,-502.149,538.728)">
            <g transform="matrix(1,0,0,-1,880.758,816.836)">
                <path d="M0,-49.134C-5.566,-43.955 -5.824,-35.66 -6.738,-28.583C-7.932,-22.225 -6.545,-15.892 -5.135,-9.695C-4.154,-6.061 -3.551,3.53 1.269,3.655C5.161,3.216 4.241,-0.236 3.503,-2.945C2.539,-8.767 1.51,-14.603 0.891,-20.471C0.666,-24.707 1.901,-28.837 2.561,-32.994C3.264,-36.024 3.847,-39.261 5.776,-41.787C13.734,-41.426 12.505,-31.315 14.551,-25.79C16.013,-21.379 17.058,-16.864 17.242,-12.206C17.616,-9.421 17.232,-6.698 17.066,-3.931C17.167,-2.041 17.645,-0.101 18.906,1.354C19.117,1.592 19.219,1.745 19.512,1.663C20.535,1.374 21.457,0.772 22.266,0.1C24.822,-1.919 26.418,-5.004 26.172,-8.294C26.094,-11.529 25.906,-14.779 25.516,-17.99C25.055,-22.492 23.381,-26.717 22.432,-31.114C21.283,-37.071 20.624,-44.033 15.297,-47.896C10.979,-50.98 4.511,-52.789 0,-49.134Z" style="fill-rule:nonzero;"/>
            </g>
            <g transform="matrix(1,0,0,-1,994.98,800.846)">
                <path d="M0,-44.587C-7.054,-40.998 -15.004,-37.304 -17.31,-28.986C-19.635,-19.08 -24.473,-8.552 -21.395,1.666C-20.535,5.034 -15.557,6.304 -14.125,2.69C-13.605,-3.912 -12.96,-10.707 -10.413,-17.001C-8.486,-25.082 -6.07,-30.908 2.407,-33.637C6.049,-21.93 -0.872,-11.262 -4.559,-0.642C-4.865,0.644 -5.049,1.977 -5.043,3.276C1.126,1.676 7.41,-1.977 9.808,-8.171C14.769,-17.536 18.191,-50.891 0,-44.587Z" style="fill-rule:nonzero;"/>
            </g>
        </g>
    </g>
</svg>
